<svg width="31" height="30" viewBox="0 0 31 30" fill="none" xmlns="http://www.w3.org/2000/svg">
<path fill-rule="evenodd" clip-rule="evenodd" d="M9.17481 0.179838C10.7569 0.107006 11.2613 0.0908203 15.2915 0.0908203C19.3215 0.0908203 19.826 0.108355 21.4067 0.179838C22.9875 0.251323 24.0665 0.503542 25.0107 0.869055C25.9993 1.24266 26.8961 1.82667 27.6379 2.58198C28.3934 3.32245 28.976 4.21803 29.3483 5.20801C29.715 6.15215 29.966 7.23115 30.0388 8.8092C30.1116 10.394 30.1278 10.8984 30.1278 14.9272C30.1278 18.9572 30.1102 19.4617 30.0388 21.0438C29.9672 22.6218 29.715 23.7009 29.3483 24.645C28.976 25.6351 28.3923 26.5321 27.6379 27.2738C26.8961 28.0291 25.9993 28.6117 25.0107 28.984C24.0665 29.3509 22.9875 29.6017 21.4094 29.6745C19.826 29.7473 19.3215 29.7635 15.2915 29.7635C11.2613 29.7635 10.7569 29.7461 9.17481 29.6745C7.59676 29.6031 6.51775 29.3509 5.57362 28.984C4.58353 28.6117 3.68647 28.028 2.9449 27.2738C2.1901 26.5327 1.60599 25.6362 1.23331 24.6464C0.867798 23.7022 0.616929 22.6232 0.544096 21.0451C0.471262 19.4604 0.455078 18.956 0.455078 14.9272C0.455078 10.8971 0.472611 10.3927 0.544096 8.8119C0.61558 7.23115 0.867798 6.15215 1.23331 5.20801C1.60655 4.21814 2.19109 3.32152 2.94624 2.58063C3.68676 1.826 4.58292 1.24191 5.57228 0.869055C6.51641 0.503542 7.59676 0.252671 9.17481 0.179838ZM21.2867 2.85038C19.7221 2.7789 19.2528 2.76406 15.2915 2.76406C11.3301 2.76406 10.8608 2.7789 9.2962 2.85038C7.84898 2.91648 7.064 3.15791 6.54069 3.36157C5.84877 3.63131 5.35378 3.95097 4.83451 4.47024C4.34226 4.94912 3.96344 5.5321 3.72581 6.17643C3.52215 6.69975 3.28072 7.48473 3.21464 8.93194C3.14316 10.4965 3.12833 10.9659 3.12833 14.9272C3.12833 18.8885 3.14316 19.3578 3.21464 20.9224C3.28072 22.3696 3.52215 23.1547 3.72581 23.678C3.9632 24.3214 4.3422 24.9054 4.83451 25.3842C5.3133 25.8764 5.89732 26.2555 6.54069 26.4929C7.064 26.6964 7.84898 26.938 9.2962 27.004C10.8608 27.0755 11.3288 27.0903 15.2915 27.0903C19.2542 27.0903 19.7221 27.0755 21.2867 27.004C22.7339 26.938 23.5188 26.6964 24.0421 26.4929C24.7342 26.223 25.229 25.9034 25.7483 25.3842C26.2407 24.9054 26.6196 24.3214 26.857 23.678C27.0607 23.1547 27.3021 22.3696 27.3683 20.9224C27.4397 19.3578 27.4545 18.8885 27.4545 14.9272C27.4545 10.9659 27.4397 10.4965 27.3683 8.93194C27.3021 7.48473 27.0607 6.69975 26.857 6.17643C26.5873 5.48451 26.2676 4.98952 25.7483 4.47024C25.2695 3.97805 24.6864 3.59923 24.0421 3.36157C23.5188 3.15791 22.7339 2.91648 21.2867 2.85038ZM13.3964 19.5008C14.4547 19.9414 15.6332 20.0009 16.7304 19.6691C17.8277 19.3373 18.7758 18.6349 19.4127 17.6816C20.0496 16.7285 20.3358 15.5838 20.2225 14.4431C20.1093 13.3024 19.6034 12.2364 18.7914 11.4272C18.2739 10.9099 17.648 10.5138 16.959 10.2674C16.2699 10.021 15.5349 9.9305 14.8066 10.0023C14.0783 10.0742 13.3751 10.3066 12.7474 10.6828C12.1198 11.0591 11.5834 11.5698 11.1768 12.1782C10.7702 12.7866 10.5036 13.4777 10.3961 14.2015C10.2887 14.9253 10.343 15.664 10.5553 16.3643C10.7676 17.0647 11.1325 17.7091 11.6238 18.2514C12.1151 18.7939 12.7205 19.2206 13.3964 19.5008ZM9.8991 9.53484C10.6072 8.82671 11.4479 8.26498 12.3731 7.88174C13.2983 7.4985 14.29 7.30125 15.2915 7.30125C16.2929 7.30125 17.2845 7.4985 18.2097 7.88174C19.135 8.26498 19.9757 8.82671 20.6839 9.53484C21.392 10.243 21.9536 11.0836 22.3369 12.0089C22.7201 12.9341 22.9173 13.9257 22.9173 14.9272C22.9173 15.9286 22.7201 16.9203 22.3369 17.8454C21.9536 18.7707 21.392 19.6114 20.6839 20.3196C19.2537 21.7497 17.314 22.553 15.2915 22.553C13.2689 22.553 11.3292 21.7497 9.8991 20.3196C8.46895 18.8894 7.66552 16.9497 7.66552 14.9272C7.66552 12.9047 8.46895 10.965 9.8991 9.53484ZM24.6087 8.43695C24.7841 8.27141 24.9246 8.07236 25.0218 7.85154C25.119 7.63075 25.1709 7.3927 25.1743 7.15148C25.1779 6.91027 25.1329 6.67082 25.0423 6.44727C24.9516 6.22373 24.817 6.02066 24.6464 5.85007C24.4758 5.6795 24.2727 5.54488 24.0492 5.45419C23.8256 5.3635 23.5862 5.31858 23.345 5.3221C23.1037 5.32561 22.8657 5.37749 22.6449 5.47467C22.4242 5.57183 22.225 5.71231 22.0595 5.8878C21.7375 6.22906 21.5614 6.68238 21.5682 7.15148C21.575 7.62059 21.7644 8.06857 22.0961 8.40032C22.4279 8.73207 22.8759 8.92146 23.345 8.92829C23.814 8.93514 24.2675 8.75888 24.6087 8.43695Z" fill="white"/>
</svg>
