<svg width="50" height="35" viewBox="0 0 50 35" fill="none" xmlns="http://www.w3.org/2000/svg">
<path d="M0.4475 0H49.8412V35H0.445312L0.4475 0Z" fill="white"/>
<path d="M30.2347 8.32788H20.0234V26.6723H30.2325L30.2347 8.32788Z" fill="#FF5F00"/>
<path d="M20.6744 17.5002C20.6722 15.7334 21.0722 13.9892 21.8443 12.4C22.6163 10.8108 23.7401 9.41828 25.1303 8.32797C23.4092 6.97458 21.3419 6.13279 19.1649 5.89884C16.9879 5.66488 14.7889 6.0482 12.8195 7.00497C10.85 7.96174 9.18954 9.45335 8.02781 11.3093C6.86608 13.1652 6.25 15.3106 6.25 17.5002C6.25 19.6897 6.86608 21.8351 8.02781 23.691C9.18954 25.547 10.85 27.0386 12.8195 27.9954C14.7889 28.9521 16.9879 29.3354 19.1649 29.1015C21.3419 28.8675 23.4092 28.0257 25.1303 26.6723C23.7401 25.582 22.6163 24.1895 21.8443 22.6003C21.0722 21.0111 20.6722 19.267 20.6744 17.5002Z" fill="#EB001B"/>
<path d="M44.007 17.4998C44.0067 19.6889 43.3905 21.8338 42.2289 23.6894C41.0673 25.5449 39.4071 27.0363 37.438 27.993C35.469 28.9497 33.2705 29.3331 31.0938 29.0995C28.9172 28.8659 26.8501 28.0247 25.1289 26.6719C26.5175 25.5801 27.64 24.1872 28.4119 22.5984C29.1838 21.0095 29.5848 19.2662 29.5848 17.4998C29.5848 15.7333 29.1838 13.99 28.4119 12.4011C27.64 10.8123 26.5175 9.41941 25.1289 8.32757C26.8499 6.97395 28.917 6.13197 31.094 5.89791C33.271 5.66385 35.4699 6.04716 37.4393 7.00401C39.4086 7.96085 41.069 9.45261 42.2304 11.3087C43.3919 13.1648 44.0075 15.3102 44.007 17.4998ZM42.8936 24.7294V24.3532H43.0445V24.2766H42.6595V24.3532H42.8105V24.7294H42.8936ZM43.6417 24.7294V24.2766H43.5236L43.388 24.5873L43.2523 24.2766H43.1342V24.7294H43.2173V24.386L43.3442 24.6813H43.4317L43.5586 24.386V24.7294H43.6417Z" fill="#F79E1B"/>
</svg>
