<svg width="57" height="35" viewBox="0 0 57 35" fill="none" xmlns="http://www.w3.org/2000/svg">
<path d="M0 0H56.875V35H0V0Z" fill="white"/>
<path d="M26.2783 15.9183L23.8196 15.9095C23.7496 15.9134 23.6794 15.906 23.6117 15.8877C23.4411 15.8417 23.3492 15.7345 23.358 15.5552C23.3733 15.1724 23.4608 14.7983 23.5177 14.422C23.7102 13.1927 23.9041 11.9626 24.0996 10.7317L25.0839 4.48642C25.1321 4.18455 25.2808 4.04892 25.5805 4.04892C27.0811 4.04892 28.5839 4.01611 30.0824 4.05767C31.5502 4.09705 32.6811 4.74236 33.3199 6.11392C33.5124 6.52517 33.5867 6.96486 33.5824 7.41767C33.5375 7.41931 33.4932 7.40709 33.4555 7.38267C32.8995 7.13101 32.2937 7.00836 31.6836 7.02392C30.4805 7.04142 29.2774 7.0283 28.0742 7.0283C27.8117 7.0283 27.6542 7.17486 27.6192 7.43736C27.5901 7.65173 27.558 7.86611 27.523 8.08048L27.2605 9.69923C27.173 10.249 27.0877 10.7995 27.0046 11.3508C26.9914 11.447 26.9192 11.5477 26.9914 11.6483C26.9657 11.718 26.946 11.7897 26.9324 11.8627C26.8536 12.3877 26.7727 12.9134 26.6896 13.4399C26.5933 14.0494 26.4956 14.6583 26.3964 15.2664C26.3592 15.4852 26.3483 15.7061 26.2783 15.9183Z" fill="#003087"/>
<path d="M26.2788 15.9182C26.3488 15.706 26.3597 15.4851 26.3969 15.2664C26.4976 14.6582 26.5953 14.0494 26.6901 13.4398C26.7717 12.9148 26.8527 12.3891 26.9329 11.8626C26.9465 11.7896 26.9662 11.7179 26.9919 11.6482C27.0324 11.5914 27.0859 11.5451 27.1479 11.5131C27.2099 11.4811 27.2787 11.4645 27.3485 11.4645C27.786 11.436 28.2213 11.4601 28.6566 11.4492C29.0985 11.4404 29.5404 11.4798 29.9801 11.4164C30.5571 11.3397 31.1114 11.142 31.6067 10.8363C32.102 10.5305 32.5272 10.1237 32.8544 9.6423C33.3182 8.98605 33.5544 8.24667 33.5938 7.44604C34.2872 7.83104 34.8297 8.36479 35.1294 9.10854C35.591 10.2614 35.4138 11.3704 34.7751 12.3942C33.946 13.7329 32.7122 14.4023 31.1372 14.4242C30.7406 14.4271 30.3432 14.4271 29.9451 14.4242C29.6629 14.4242 29.5076 14.5489 29.4616 14.8245L28.9957 17.7645C28.9607 17.9993 28.9228 18.2341 28.8819 18.4689C28.8316 18.7445 28.6851 18.8648 28.4116 18.8648H26.2941C25.9879 18.8648 25.8479 18.7117 25.896 18.401C25.9944 17.7448 26.1038 17.0885 26.2066 16.4323C26.2314 16.2617 26.2555 16.0903 26.2788 15.9182Z" fill="#0070DF"/>
<path d="M33.5944 7.44636C33.5648 8.2344 33.3081 8.9971 32.8551 9.64261C32.1507 10.6379 31.1926 11.2395 29.9807 11.4167C29.5432 11.4823 29.0991 11.4385 28.6572 11.4495C28.2197 11.4604 27.7844 11.4364 27.3491 11.4648C27.2793 11.4648 27.2106 11.4814 27.1485 11.5134C27.0865 11.5454 27.033 11.5917 26.9926 11.6485C26.9204 11.5479 26.9926 11.4473 27.0057 11.351C27.0859 10.8013 27.1719 10.2507 27.2638 9.69948L27.5263 8.08073C27.5598 7.86636 27.5912 7.65198 27.6204 7.43761C27.6554 7.17511 27.8151 7.02854 28.0754 7.02854C29.2785 7.02854 30.4816 7.04167 31.6847 7.02417C32.306 7.01323 32.8922 7.12479 33.4566 7.38292C33.4943 7.40733 33.5386 7.41955 33.5835 7.41792L33.5944 7.44636Z" fill="#001C64"/>
<path d="M34.3658 27.2802H33.517C33.2392 27.2802 33.167 27.3458 33.1233 27.6193L32.7164 30.1918C32.6814 30.4258 32.6004 30.4958 32.3642 30.4958H30.7826C30.507 30.4958 30.4173 30.3974 30.4589 30.1305L30.9358 27.1118L31.6204 22.7827L31.9245 20.849C31.9573 20.6477 32.0448 20.5711 32.2526 20.5733C33.4208 20.5799 34.5933 20.5515 35.7614 20.5865C37.1876 20.6302 38.4301 21.6211 38.7211 22.9665C38.9223 23.8983 38.7014 24.7646 38.1851 25.5477C37.4261 26.6918 36.3411 27.2649 34.9651 27.2802H34.3658ZM34.3767 25.1802C34.6326 25.1715 34.9367 25.1999 35.2386 25.1452C35.6542 25.0708 36.0217 24.9046 36.2623 24.5393C36.7939 23.7343 36.4373 22.833 35.512 22.7018C35.0089 22.6274 34.4948 22.6799 33.9873 22.6711C33.8998 22.6711 33.8933 22.7258 33.8823 22.7893C33.7657 23.5476 33.6453 24.3059 33.5214 25.0643C33.5039 25.1693 33.5411 25.1846 33.6308 25.1824C33.8626 25.1758 34.0945 25.1802 34.3767 25.1802Z" fill="#0170DF"/>
<path d="M10.2846 27.2802H9.40306C9.15587 27.2802 9.07494 27.3458 9.03556 27.593L8.63088 30.183C8.59369 30.4236 8.51275 30.4958 8.26556 30.4958H6.70369C6.41713 30.4958 6.32744 30.3974 6.369 30.1196C6.5265 29.1075 6.68692 28.0961 6.85025 27.0855L7.46275 23.183C7.58525 22.3955 7.70921 21.608 7.83462 20.8205C7.86306 20.6389 7.9615 20.5711 8.18463 20.5711C9.15588 20.5711 10.1249 20.5777 11.094 20.5711C11.7284 20.5646 12.3496 20.6105 12.9249 20.8927C14.0406 21.4396 14.6859 22.3277 14.6881 23.5833C14.6968 24.7449 14.1893 25.7052 13.2924 26.4358C12.591 27.0046 11.7874 27.286 10.8818 27.2802H10.2846ZM10.2693 25.1802C10.534 25.1714 10.8468 25.2021 11.1531 25.1474C11.7218 25.0424 12.1528 24.7711 12.3343 24.1914C12.5793 23.4214 12.2184 22.8133 11.4221 22.6996C10.919 22.6274 10.4049 22.6777 9.89525 22.6689C9.82306 22.6689 9.80775 22.7105 9.79681 22.7718C9.67723 23.5374 9.55546 24.3023 9.4315 25.0664C9.41619 25.1714 9.45337 25.1846 9.54306 25.1824C9.77275 25.1758 9.99806 25.1802 10.2693 25.1802ZM19.3737 29.9993C19.0145 30.2498 18.6139 30.435 18.1902 30.5461C16.5584 30.9552 14.4431 30.0299 14.3162 27.7111C14.2418 26.3614 14.6881 25.2064 15.6921 24.2921C16.6546 23.4127 18.3521 22.9621 19.6646 23.6468C19.8907 23.7663 20.1007 23.9107 20.2946 24.0799C20.3559 23.9858 20.3362 23.8808 20.3603 23.7868C20.4084 23.603 20.4718 23.5461 20.6599 23.5439H22.2568C22.4697 23.5454 22.5616 23.6511 22.5324 23.8611C22.3997 24.7186 22.2641 25.5761 22.1256 26.4336L21.5393 30.1546C21.4977 30.4236 21.4234 30.4936 21.1456 30.4936H19.8156C19.3715 30.4936 19.3299 30.4521 19.3737 29.9993ZM17.9562 28.7108C18.3492 28.7165 18.734 28.5983 19.056 28.3729C19.378 28.1475 19.6208 27.8264 19.7499 27.4552C20.0781 26.5146 19.6253 25.6221 18.7109 25.3989C18.2803 25.303 17.8298 25.3597 17.4364 25.5592C17.043 25.7587 16.7311 26.0887 16.554 26.4927C16.0837 27.6214 16.7706 28.7064 17.9562 28.7108Z" fill="#013187"/>
<path d="M44.3985 24.0973L44.4554 23.7779C44.4817 23.6234 44.5728 23.5453 44.7288 23.5439H46.3432C46.562 23.5439 46.6538 23.654 46.6188 23.8742L46.3782 25.4164C46.1799 26.6501 45.9845 27.8853 45.792 29.122C45.7336 29.4866 45.6753 29.8526 45.617 30.2201C45.5842 30.417 45.4945 30.4936 45.2888 30.4936C44.7959 30.4965 44.3023 30.4965 43.8079 30.4936C43.4885 30.4936 43.4142 30.4061 43.4579 30.0933V30.0101C43.3179 30.0947 43.1801 30.1742 43.0445 30.2486C42.4421 30.5767 41.7505 30.7037 41.0708 30.6108C40.3911 30.5179 39.7589 30.2101 39.2667 29.7323C38.7088 29.1854 38.4485 28.492 38.407 27.7198C38.3326 26.3876 38.7417 25.2173 39.7457 24.3358C40.8395 23.3689 42.1148 23.0342 43.5388 23.5483C43.8538 23.6642 44.1295 23.8545 44.3985 24.0973ZM42.0448 28.7108C42.4297 28.7166 42.807 28.6036 43.1253 28.3871C43.4436 28.1706 43.6873 27.8612 43.8232 27.5011C44.1885 26.5495 43.7138 25.6023 42.7601 25.3901C42.2722 25.2871 41.7634 25.382 41.3454 25.6539C40.9274 25.9259 40.6345 26.3526 40.531 26.8404C40.3232 27.8686 41.0035 28.7108 42.0448 28.7108Z" fill="#0170DF"/>
<path d="M26.4128 27.0657C26.4872 27.0198 26.5069 26.952 26.5397 26.8995C27.158 25.8641 27.7727 24.8272 28.3838 23.7889C28.4822 23.6139 28.6091 23.5373 28.8103 23.5417C29.4031 23.5504 29.996 23.5439 30.5888 23.5439C30.685 23.5439 30.7835 23.5351 30.8403 23.6314C30.8994 23.732 30.8578 23.8217 30.8031 23.9092L25.7588 32.2611C25.7231 32.3303 25.6677 32.3875 25.5996 32.4252C25.5314 32.463 25.4536 32.4797 25.376 32.4732C24.7737 32.4689 24.1699 32.4681 23.5647 32.4711C23.4706 32.4711 23.3722 32.4776 23.3175 32.3748C23.2628 32.2742 23.311 32.1845 23.3656 32.097C23.8702 31.2774 24.3763 30.4593 24.8838 29.6426C24.9165 29.5965 24.9375 29.5432 24.9452 29.4872C24.9528 29.4312 24.9467 29.3742 24.9275 29.3211C24.3442 27.5258 23.763 25.7277 23.1841 23.9267C23.0856 23.6248 23.1447 23.5461 23.4619 23.5461H25.0413C25.3038 23.5461 25.3541 23.5832 25.4306 23.8304L26.4128 27.0657Z" fill="#013187"/>
<path d="M47.8932 30.4937H47.1123C46.841 30.4937 46.7513 30.3952 46.7929 30.1218C46.9023 29.3955 47.0226 28.6693 47.1363 27.9408L47.7554 24.0252L48.2585 20.8271C48.2848 20.6696 48.3723 20.5755 48.5363 20.5733C49.1124 20.569 49.6884 20.569 50.2644 20.5733C50.4497 20.5733 50.5328 20.6652 50.5138 20.849C50.4657 21.2537 50.4001 21.6583 50.3366 22.063L49.6869 26.1602L49.046 30.229C49.0176 30.4083 48.9169 30.4937 48.7244 30.4958L47.8932 30.4937Z" fill="#0170DF"/>
<path d="M34.3759 25.1804C34.0937 25.1804 33.8618 25.176 33.6299 25.1804C33.5402 25.1804 33.503 25.1673 33.5205 25.0623L33.8815 22.7873C33.8924 22.7216 33.899 22.6669 33.9865 22.6691C34.494 22.6757 35.008 22.6254 35.5112 22.6976C36.4365 22.8288 36.7952 23.7279 36.2615 24.5351C36.0209 24.9026 35.6555 25.071 35.2377 25.1476C34.9359 25.2001 34.6318 25.1694 34.3759 25.1804ZM10.2674 25.1804C9.99617 25.1804 9.77086 25.176 9.54336 25.1804C9.45367 25.1804 9.4143 25.1673 9.4318 25.0644C9.55576 24.2988 9.6768 23.5339 9.79492 22.7698C9.80586 22.7085 9.82117 22.6669 9.89555 22.6669C10.4052 22.6757 10.9171 22.6254 11.4224 22.6976C12.2165 22.8113 12.5774 23.4194 12.3346 24.1894C12.1509 24.7669 11.7221 25.0404 11.1534 25.1432C10.8449 25.2023 10.5343 25.1716 10.2674 25.1804ZM17.9543 28.711C16.7687 28.7066 16.0818 27.6216 16.5521 26.4907C16.7292 26.0867 17.0411 25.7567 17.4345 25.5572C17.8279 25.3577 18.2784 25.301 18.709 25.3969C19.6234 25.6223 20.0762 26.5148 19.748 27.4532C19.6193 27.8248 19.3766 28.1464 19.0546 28.3722C18.7326 28.598 18.3476 28.7166 17.9543 28.711ZM42.043 28.711C41.0018 28.711 40.3215 27.871 40.5293 26.8407C40.5805 26.5989 40.6789 26.3696 40.8187 26.1659C40.9586 25.9621 41.1372 25.7879 41.3444 25.6533C41.5516 25.5186 41.7834 25.426 42.0263 25.3809C42.2693 25.3358 42.5188 25.339 42.7605 25.3904C43.7121 25.6026 44.1912 26.5498 43.8215 27.5013C43.6856 27.8615 43.4418 28.1709 43.1236 28.3874C42.8053 28.6039 42.4279 28.7169 42.043 28.711Z" fill="#FEFEFE"/>
</svg>
