<svg width="35" height="34" viewBox="0 0 35 34" fill="none" xmlns="http://www.w3.org/2000/svg">
<path fill-rule="evenodd" clip-rule="evenodd" d="M10.9402 32.7727C10.2512 32.5881 9.63933 32.2677 9.04986 31.9258C3.53268 28.7261 0.554084 23.9595 0.204848 17.5765C-0.189967 10.3625 4.48262 3.20088 11.941 0.830739C22.0484 -2.38119 32.1588 4.0758 33.9217 14.0837C35.5392 23.2651 29.4542 32.1218 19.958 33.7552C17.4975 34.1783 15.0191 34.0601 12.596 33.3447C12.316 33.262 12.1266 33.2092 12.3511 32.8797C13.8688 30.6516 14.4715 28.0797 15.115 25.5233C15.1688 25.3093 15.2288 25.0968 15.3083 24.7997C16.1262 25.8802 17.204 26.46 18.4661 26.6044C20.653 26.8543 22.6082 26.2276 24.3006 24.8254C26.3542 23.1237 27.4436 20.8724 27.8635 18.2932C28.4531 14.6717 27.6017 11.4795 24.8202 8.94809C23.2917 7.55716 21.4602 6.76901 19.4246 6.45985C16.6321 6.0357 13.9616 6.42543 11.4499 7.73911C6.66447 10.2421 4.85778 16.539 7.6096 21.1046C8.09815 21.9152 8.7129 22.6068 9.56326 23.0653C9.99622 23.2988 10.303 23.292 10.3799 22.7171C10.3852 22.6774 10.3993 22.6383 10.4125 22.6C10.7699 21.564 10.7417 20.6799 10.1826 19.5933C8.02742 15.4046 10.7747 10.2319 15.446 9.44155C17.2928 9.12911 19.0901 9.2548 20.7734 10.1679C23.0681 11.4125 24.1116 13.4352 24.2084 15.9488C24.2952 18.2051 23.8398 20.3529 22.3861 22.178C21.4774 23.3189 20.3189 23.9844 18.8158 23.9471C17.0595 23.9034 15.957 22.5092 16.3899 20.8041C16.7188 19.5087 17.1401 18.2371 17.491 16.9468C17.6821 16.2447 17.8445 15.5335 17.7184 14.7884C17.4216 13.0356 15.7876 12.2908 14.2787 13.248C13.1998 13.9325 12.7351 15.0056 12.5777 16.2097C12.4562 17.1394 12.5103 18.0854 12.8395 18.9735C12.9988 19.4035 12.9783 19.7868 12.8758 20.2062C12.3271 22.4499 11.7903 24.6965 11.2449 26.941C10.8186 28.6952 10.7357 30.4676 10.9378 32.2576C10.9557 32.4157 10.9402 32.5776 10.9402 32.7727Z" fill="white"/>
</svg>
