<svg width="26" height="30" viewBox="0 0 26 30" fill="none" xmlns="http://www.w3.org/2000/svg">
<path d="M22.6251 6.28834C22.4295 6.18725 22.2391 6.07643 22.0545 5.9563C21.5181 5.6016 21.0262 5.18366 20.5894 4.71148C19.4968 3.46124 19.0886 2.19289 18.9383 1.30485H18.9443C18.8188 0.567738 18.8707 0.0908203 18.8786 0.0908203H13.9017V19.3353C13.9017 19.5937 13.9017 19.8491 13.8909 20.1014C13.8909 20.1329 13.8878 20.1618 13.886 20.1956C13.886 20.2095 13.886 20.2239 13.883 20.2384C13.883 20.2422 13.883 20.2457 13.883 20.2494C13.8305 20.9398 13.6092 21.6068 13.2385 22.1917C12.8677 22.7765 12.3589 23.2614 11.7568 23.6035C11.1293 23.9605 10.4196 24.1477 9.6976 24.1467C7.37882 24.1467 5.49953 22.256 5.49953 19.921C5.49953 17.5858 7.37882 15.6951 9.6976 15.6951C10.1365 15.6947 10.5728 15.7637 10.9901 15.8997L10.9962 10.8323C9.72922 10.6687 8.44212 10.7694 7.21605 11.128C5.98998 11.4867 4.85155 12.0956 3.87259 12.9163C3.01477 13.6616 2.29361 14.5509 1.74154 15.5441C1.53145 15.9064 0.73881 17.3619 0.642823 19.7241C0.582454 21.065 0.985121 22.454 1.1771 23.0281V23.0402C1.29783 23.3783 1.7657 24.5319 2.52815 25.5044C3.14298 26.2846 3.86937 26.97 4.68395 27.5384V27.5262L4.69602 27.5384C7.10535 29.1755 9.7767 29.0681 9.7767 29.0681C10.2391 29.0494 11.7882 29.0681 13.5474 28.2343C15.4986 27.3101 16.6093 25.9331 16.6093 25.9331C17.3189 25.1103 17.8832 24.1727 18.2779 23.1603C18.7282 21.9765 18.8786 20.5567 18.8786 19.9892V9.77949C18.9389 9.81571 19.743 10.3476 19.743 10.3476C19.743 10.3476 20.9015 11.0901 22.709 11.5737C24.0057 11.9178 25.7528 11.9902 25.7528 11.9902V7.04958C25.1406 7.11599 23.8976 6.92281 22.6251 6.28834Z" fill="white"/>
</svg>
