<svg width="57" height="35" viewBox="0 0 57 35" fill="none" xmlns="http://www.w3.org/2000/svg">
<path d="M0 0H56.875V35H0V0Z" fill="white"/>
<path d="M23.5478 11.1672L18.2256 23.8634H14.7541L12.1356 13.7331C11.9759 13.1097 11.8381 12.88 11.3547 12.6175C10.5672 12.1887 9.26125 11.7862 8.11719 11.5391L8.19375 11.1672H13.7806C14.4938 11.1672 15.1347 11.6441 15.2966 12.4644L16.6791 19.8078L20.0959 11.1672H23.5478ZM37.1475 19.7203C37.1606 16.3691 32.5144 16.1831 32.5472 14.6891C32.5559 14.2297 32.9913 13.7484 33.9384 13.6237C34.4109 13.5625 35.7059 13.5144 37.1759 14.1925L37.7534 11.5019C36.7718 11.1311 35.7315 10.9399 34.6822 10.9375C31.4359 10.9375 29.1522 12.6634 29.1325 15.1331C29.1106 16.9619 30.7622 17.9812 32.0069 18.5894C33.2866 19.2106 33.7175 19.6087 33.7131 20.1644C33.7022 21.0175 32.6916 21.3938 31.7444 21.4091C30.095 21.4331 29.1369 20.9606 28.3734 20.6062L27.7784 23.3888C28.5441 23.7387 29.9616 24.045 31.4316 24.0625C34.8791 24.0625 37.1366 22.3562 37.1475 19.7181M45.7181 23.8612H48.7566L46.1053 11.1672H43.3009C43.0012 11.1636 42.7073 11.2506 42.4579 11.4169C42.2085 11.5832 42.0151 11.821 41.9031 12.0991L36.9769 23.8612H40.4244L41.1091 21.9647H45.3222L45.7181 23.8612ZM42.0541 19.3659L43.7822 14.5994L44.7775 19.3659H42.0541ZM28.2378 11.1672L25.5231 23.8612H22.2397L24.9544 11.1672H28.2378Z" fill="#1434CB"/>
</svg>
