<svg width="20" height="20" viewBox="0 0 20 20" fill="none" xmlns="http://www.w3.org/2000/svg">
<path fill-rule="evenodd" clip-rule="evenodd" d="M4.53511 0H0.899267L0.0133166 13.6954C-0.0403077 14.5027 0.0683946 15.3127 0.332672 16.0751C0.596949 16.8375 1.01116 17.536 1.54957 18.1273C2.08799 18.7185 2.73912 19.1898 3.46252 19.512C4.18592 19.8341 4.96614 20.0003 5.75473 20H14.246C15.0336 20.0001 15.8128 19.8344 16.5354 19.5129C17.2579 19.1915 17.9085 18.7212 18.4468 18.1313C18.985 17.5413 19.3995 16.8443 19.6645 16.0833C19.9295 15.3223 20.0394 14.5136 19.9875 13.7072L19.09 0H4.53511ZM4.53511 1.18064H1.98082L1.1639 13.778C1.12134 14.4235 1.20848 15.0711 1.41992 15.6805C1.63135 16.29 1.96256 16.8484 2.39301 17.3211C2.82346 17.7938 3.34397 18.1707 3.92226 18.4284C4.50054 18.6862 5.12426 18.8192 5.75473 18.8194H14.246C14.8775 18.8208 15.5025 18.689 16.0821 18.432C16.6617 18.1749 17.1836 17.7983 17.6153 17.3254C18.047 16.8526 18.3793 16.2936 18.5914 15.6833C18.8035 15.073 18.891 14.4245 18.8484 13.778L18.02 1.18064H15.4657V1.92444C15.4657 2.6609 15.3243 3.39014 15.0496 4.07054C14.775 4.75094 14.3724 5.36916 13.8649 5.88991C13.3574 6.41067 12.7549 6.82375 12.0919 7.10558C11.4288 7.38741 10.7181 7.53247 10.0004 7.53247C9.28268 7.53247 8.57199 7.38741 7.90892 7.10558C7.24584 6.82375 6.64335 6.41067 6.13585 5.88991C5.62836 5.36916 5.22579 4.75094 4.95113 4.07054C4.67648 3.39014 4.53511 2.6609 4.53511 1.92444V1.18064ZM14.3151 1.18064H5.6857V1.92444C5.6857 3.09866 6.14028 4.22478 6.94944 5.05508C7.7586 5.88537 8.85606 6.35183 10.0004 6.35183C11.1447 6.35183 12.2422 5.88537 13.0513 5.05508C13.8605 4.22478 14.3151 3.09866 14.3151 1.92444V1.18064Z" fill="#121212"/>
</svg>
