<svg width="30" height="30" viewBox="0 0 30 30" fill="none" xmlns="http://www.w3.org/2000/svg">
<path d="M25.9572 0H4.04262C1.81002 0 6.10352e-05 1.80989 6.10352e-05 4.04256V25.9573C6.10352e-05 28.19 1.80995 29.9999 4.04262 29.9999H14.8508L14.8692 19.2795H12.0841C11.7221 19.2795 11.4284 18.9869 11.427 18.6249L11.4136 15.1693C11.4122 14.8054 11.7069 14.5096 12.0708 14.5096H14.8509V11.1706C14.8509 7.29576 17.2174 5.18587 20.674 5.18587H23.5105C23.8734 5.18587 24.1677 5.48008 24.1677 5.84305V8.75684C24.1677 9.11967 23.8736 9.4138 23.5108 9.41402L21.7701 9.41483C19.8903 9.41483 19.5263 10.3081 19.5263 11.619V14.5097H23.6569C24.0505 14.5097 24.3559 14.8534 24.3095 15.2442L23.8999 18.6998C23.8607 19.0305 23.5803 19.2797 23.2474 19.2797H19.5447L19.5263 30H25.9574C28.19 30 29.9998 28.1901 29.9998 25.9575V4.04256C29.9998 1.80989 28.1899 0 25.9572 0Z" fill="#475993"/>
</svg>
