<svg width="20" height="20" viewBox="0 0 20 20" fill="none" xmlns="http://www.w3.org/2000/svg">
<path d="M18.3644 2.5047C17.33 1.40015 15.8804 0.771679 14.3617 0.769349C12.8417 0.771097 11.3906 1.39924 10.3546 2.504L10.0015 2.87465L9.64836 2.504C7.59251 0.306003 4.13215 0.179776 1.91953 2.222C1.82148 2.31253 1.72679 2.40656 1.63565 2.504C-0.545218 4.84074 -0.545218 8.45207 1.63565 10.7888L9.48255 19.009C9.75403 19.2937 10.2064 19.3059 10.493 19.0362C10.5024 19.0274 10.5115 19.0183 10.5204 19.009L18.3645 10.7888C20.5452 8.45232 20.5452 4.8412 18.3644 2.5047ZM17.3302 9.81107H17.3295L10.0015 17.4888L2.67282 9.81107C1.00676 8.02558 1.00676 5.26652 2.67282 3.48103C4.1858 1.85206 6.74172 1.74992 8.38156 3.25287C8.46118 3.32585 8.53778 3.40194 8.61124 3.48103L9.48255 4.39416C9.76969 4.67757 10.2333 4.67757 10.5204 4.39416L11.3917 3.48174C12.9047 1.85277 15.4606 1.75063 17.1005 3.25358C17.1801 3.32655 17.2567 3.40265 17.3302 3.48174C19.0107 5.27005 19.023 8.03415 17.3302 9.81107Z" fill="#121212"/>
</svg>
