<svg width="30" height="30" viewBox="0 0 30 30" fill="none" xmlns="http://www.w3.org/2000/svg">
<path d="M25.9091 0H4.09091C1.83156 0 0 1.83156 0 4.09091V25.9091C0 28.1684 1.83156 30 4.09091 30H25.9091C28.1684 30 30 28.1684 30 25.9091V4.09091C30 1.83156 28.1684 0 25.9091 0Z" fill="#D50012"/>
<path d="M15.4398 5.625C10.3261 5.625 7.74203 9.29318 7.74203 12.3528C7.74203 14.2057 8.4426 15.8523 9.94772 16.4676C10.0001 16.4952 10.0584 16.5099 10.1177 16.5103C10.1769 16.5107 10.2354 16.4969 10.2882 16.47C10.341 16.4431 10.3865 16.4039 10.421 16.3558C10.4555 16.3076 10.4779 16.2518 10.4864 16.1932C10.5375 16.004 10.6568 15.5267 10.7062 15.329C10.7795 15.058 10.7506 14.9642 10.5511 14.729C10.1182 14.2176 9.84033 13.5545 9.84033 12.617C9.84033 9.88977 11.8858 7.45739 15.1432 7.45739C18.0409 7.45739 19.6244 9.225 19.6244 11.5858C19.6244 14.6915 18.2506 17.3114 16.2153 17.3114C15.0886 17.3114 14.2449 16.379 14.5108 15.2369C14.8347 13.8733 15.4619 12.4006 15.4619 11.4153C15.4619 10.5341 14.9881 9.79773 14.0097 9.79773C12.8574 9.79773 11.9318 10.9909 11.9318 12.5864C11.9236 13.1723 12.0398 13.7532 12.2727 14.2909C12.2727 14.2909 11.0932 19.2835 10.8869 20.1597C10.4761 21.9 10.8256 24.0358 10.8545 24.2506C10.8591 24.2783 10.8716 24.304 10.8906 24.3246C10.9097 24.3452 10.9343 24.3598 10.9616 24.3665C10.9888 24.3732 11.0174 24.3718 11.0438 24.3624C11.0703 24.353 11.0933 24.336 11.1102 24.3136C11.2176 24.1739 12.5881 22.4812 13.0551 20.7886C13.1864 20.3097 13.8119 17.8278 13.8119 17.8278C14.1869 18.542 15.2795 19.171 16.4437 19.171C19.9057 19.171 22.2545 16.0142 22.2545 11.7903C22.2579 8.59943 19.5511 5.625 15.4398 5.625V5.625Z" fill="white"/>
</svg>
