<svg width="30" height="30" viewBox="0 0 30 30" fill="none" xmlns="http://www.w3.org/2000/svg">
<path d="M29.1395 18.2603C28.7051 18.2603 28.3531 18.6123 28.3531 19.0466V26.0284C28.3516 27.3304 27.2966 28.3858 25.9943 28.3873H3.9315C2.62919 28.3858 1.57413 27.3304 1.5726 26.0284V5.53825C1.57413 4.23594 2.62919 3.18088 3.9315 3.17935H10.913C11.3473 3.17935 11.6993 2.82736 11.6993 2.39305C11.6993 1.95874 11.3473 1.60675 10.913 1.60675H3.9315C1.76119 1.60921 0.00245718 3.36794 0 5.53825V26.0284C0.00245718 28.1987 1.76119 29.9574 3.9315 29.9599H25.9943C28.1646 29.9574 29.9233 28.1987 29.9257 26.0284V19.0469C29.9257 18.6126 29.5738 18.2603 29.1395 18.2603Z" fill="#DD3834"/>
<path d="M12.2951 14.1228L23.776 2.64156L27.4787 6.34423L15.9978 17.8254L12.2951 14.1228Z" fill="#DD3834"/>
<path d="M10.4217 19.6987L14.5135 18.5653L11.5551 15.6068L10.4217 19.6987Z" fill="#DD3834"/>
<path d="M28.5025 0.695478C27.7343 -0.0708561 26.4907 -0.0708561 25.7225 0.695478L24.8886 1.52939L28.5913 5.23206L29.4252 4.39815C30.1918 3.62997 30.1918 2.38633 29.4252 1.61815L28.5025 0.695478Z" fill="#DD3834"/>
</svg>
