<svg width="30" height="30" viewBox="0 0 30 30" fill="none" xmlns="http://www.w3.org/2000/svg">
<path d="M27.6316 0H2.36842C1.06038 0 0 1.06038 0 2.36842V27.6316C0 28.9396 1.06038 30 2.36842 30H27.6316C28.9396 30 30 28.9396 30 27.6316V2.36842C30 1.06038 28.9396 0 27.6316 0Z" fill="#03A9F4"/>
<path d="M24.7164 8.97427C23.9856 9.29346 23.2125 9.50552 22.4211 9.60387C23.2554 9.10914 23.879 8.32535 24.1737 7.40124C23.3928 7.86473 22.5384 8.19116 21.6474 8.36637C21.1014 7.78246 20.3923 7.37636 19.6124 7.20089C18.8325 7.02542 18.0178 7.08871 17.2743 7.38252C16.5309 7.67633 15.893 8.18706 15.4437 8.84829C14.9945 9.50952 14.7546 10.2906 14.7553 11.0901C14.7525 11.3952 14.7836 11.6997 14.848 11.998C13.2631 11.9201 11.7124 11.5088 10.2973 10.7908C8.88217 10.0729 7.63441 9.0645 6.63553 7.83151C6.12209 8.70863 5.96303 9.74872 6.19084 10.7392C6.41865 11.7297 7.01614 12.5958 7.86119 13.1605C7.23044 13.1434 6.61306 12.9749 6.06119 12.669V12.7124C6.06296 13.6318 6.38119 14.5226 6.96239 15.235C7.54359 15.9474 8.35232 16.4379 9.25263 16.6243C8.91192 16.7138 8.56082 16.7576 8.20855 16.7545C7.95491 16.7592 7.70149 16.7367 7.45263 16.6874C7.71057 17.4781 8.20715 18.1695 8.87408 18.6664C9.54102 19.1633 10.3455 19.4414 11.177 19.4624C9.76801 20.5637 8.03107 21.1619 6.24276 21.1618C5.92413 21.1645 5.60566 21.146 5.28947 21.1065C7.1129 22.2822 9.23834 22.9033 11.4079 22.8947C18.7401 22.8947 22.7487 16.8216 22.7487 11.5578C22.7487 11.3822 22.7487 11.2124 22.7349 11.0427C23.5155 10.4793 24.187 9.77836 24.7164 8.97427Z" fill="white"/>
</svg>
